<?xml version="1.0" encoding="utf-8"?>
<!-- Generator: Adobe Illustrator 22.0.0, SVG Export Plug-In . SVG Version: 6.00 Build 0)  -->
<svg version="1.1" id="Capa_1" xmlns="http://www.w3.org/2000/svg" xmlns:xlink="http://www.w3.org/1999/xlink" x="0px" y="0px"
	 viewBox="0 0 442 232" style="enable-background:new 0 0 442 232;" xml:space="preserve">
<style type="text/css">
	.st0{fill:#FFFFFF;}
	.st1{fill:#FFFFFF;stroke:#000000;stroke-miterlimit:10;}
	.st2{fill:none;}
</style>
<g>
	<g>
		<rect x="0.5" y="0.5" class="st0" width="441" height="231"/>
		<path d="M441,1v230H1V1H441 M442,0H0v232h442V0L442,0z"/>
	</g>
	<g>
		<rect x="165.5" y="78.5" class="st1" width="112" height="73"/>
		<line class="st1" x1="183.5" y1="40.5" x2="210.5" y2="78.5"/>
		<line class="st1" x1="257.5" y1="40.5" x2="237.5" y2="78.5"/>
		<circle class="st1" cx="261" cy="35" r="6.5"/>
		<circle class="st1" cx="181" cy="35" r="6.5"/>
		<line class="st1" x1="193.5" y1="87.5" x2="193.5" y2="108.5"/>
		<line class="st1" x1="249.5" y1="88" x2="249.5" y2="109"/>
	</g>
	<rect x="184.5" y="116.5" class="st1" width="74" height="25"/>
	<line class="st1" x1="195.5" y1="116.5" x2="195.5" y2="141.5"/>
	<line class="st1" x1="207.5" y1="117" x2="207.5" y2="142"/>
	<line class="st1" x1="218.5" y1="117" x2="218.5" y2="142"/>
	<line class="st1" x1="228.5" y1="117" x2="228.5" y2="142"/>
	<line class="st1" x1="238.5" y1="117" x2="238.5" y2="142"/>
	<line class="st1" x1="248.5" y1="117" x2="248.5" y2="142"/>
	<line class="st1" x1="184.5" y1="129.5" x2="258.5" y2="129.5"/>
</g>
<g>
	<path class="st2" d="M275.7,115.8"/>
	<path class="st2" d="M167.3,115.8"/>
	<polygon points="0.8,0.1 0.2,0.9 165.6,115.8 166.4,115.1 	"/>
	<polygon points="442.8,0.9 442.2,0.1 276.6,115.1 277.4,115.8 	"/>
	<line x1="275.7" y1="115.8" x2="276.6" y2="115.1"/>
	<polygon points="276.6,116.4 442.2,231.4 442.8,230.6 277.4,115.8 	"/>
	<polygon points="276.6,115.1 275.7,115.8 276.6,116.4 277.4,115.8 	"/>
	<polygon points="0.2,230.6 0.8,231.4 166.4,116.4 165.6,115.8 	"/>
	<line x1="166.4" y1="115.1" x2="167.3" y2="115.8"/>
	<polygon points="166.4,115.1 165.6,115.8 166.4,116.4 167.3,115.8 	"/>
</g>
</svg>
